<?xml version="1.0" standalone="no"?>
<!DOCTYPE svg PUBLIC "-//W3C//DTD SVG 20010904//EN"
 "http://www.w3.org/TR/2001/REC-SVG-20010904/DTD/svg10.dtd">
<svg version="1.0" xmlns="http://www.w3.org/2000/svg"
 width="50.000000pt" height="50.000000pt" viewBox="0 0 50.000000 50.000000"
 preserveAspectRatio="xMidYMid meet">

<g transform="translate(0.000000,50.000000) scale(0.100000,-0.100000)"
fill="#000000" stroke="none">
<path d="M92 415 c-115 -36 -105 -105 19 -135 54 -13 154 -8 222 10 52 15 51
45 -3 61 -30 9 -49 9 -84 -1 -37 -10 -52 -10 -77 0 -25 11 -40 11 -81 1 -57
-15 -73 -7 -40 20 50 40 139 49 252 25 65 -14 87 -12 60 4 -20 12 -129 30
-181 29 -24 0 -63 -6 -87 -14z m118 -87 c19 0 51 3 70 7 23 4 41 2 54 -8 18
-13 14 -15 -46 -26 -80 -14 -132 -14 -180 0 -64 17 -38 43 32 32 19 -3 51 -6
70 -5z"/>
<path d="M413 399 c-19 -7 -23 -16 -23 -49 0 -33 4 -42 23 -49 15 -6 23 -5 25
5 2 7 13 14 25 16 31 4 31 52 0 56 -12 2 -23 9 -25 16 -2 10 -10 11 -25 5z
m57 -49 c0 -5 -7 -10 -15 -10 -8 0 -15 5 -15 10 0 6 7 10 15 10 8 0 15 -4 15
-10z"/>
<path d="M41 206 c-32 -55 -38 -96 -21 -140 11 -30 37 -33 80 -11 23 12 30 22
30 46 0 17 4 39 10 49 18 33 110 67 110 40 0 -5 5 -10 10 -10 6 0 10 16 10 35
0 19 -4 35 -10 35 -5 0 -10 -4 -10 -10 0 -5 -7 -10 -15 -10 -8 0 -15 5 -15 10
0 19 -17 10 -28 -15 -6 -14 -18 -25 -25 -25 -23 0 -47 -35 -55 -80 -6 -36 -12
-45 -36 -53 -54 -18 -63 47 -16 130 33 58 35 63 21 63 -5 0 -23 -24 -40 -54z"/>
</g>
</svg>
